<?xml version="1.0" standalone="no"?>
<!DOCTYPE svg PUBLIC "-//W3C//DTD SVG 20010904//EN"
  "http://www.w3.org/TR/2001/REC-SVG-20010904/DTD/svg10.dtd">
<svg version="1.0" xmlns="http://www.w3.org/2000/svg"
     width="310.000000pt" height="310.000000pt" viewBox="0 0 310.000000 310.000000"
     preserveAspectRatio="xMidYMid meet">
  <metadata>
    Created by potrace 1.14, written by Peter Selinger 2001-2017
  </metadata>
  <g transform="translate(0.000000,310.000000) scale(0.100000,-0.100000)"
     fill="#000000" stroke="none">
    <path d="M2456 2801 c-11 -12 -19 -40 -21 -78 -3 -51 -11 -155 -20 -250 -5
-54 15 -135 50 -208 19 -38 29 -62 22 -51 -6 10 -39 59 -71 109 -127 195 -335
352 -556 420 -171 53 -399 59 -571 14 -278 -73 -521 -259 -650 -500 -17 -32
-37 -61 -44 -63 -16 -7 -60 -88 -74 -139 -6 -22 -14 -74 -17 -115 -5 -71 -7
-77 -42 -105 -153 -127 -243 -264 -267 -405 -47 -275 135 -536 490 -704 50
-24 107 -49 127 -55 20 -7 48 -27 62 -46 112 -147 328 -270 531 -304 61 -10
255 -8 310 3 104 22 226 73 321 134 56 37 163 134 194 177 17 22 32 31 140 74
96 39 210 106 289 169 303 244 337 584 85 852 -55 58 -61 68 -45 73 22 5 81
91 81 116 0 9 23 31 50 50 132 89 218 275 207 446 -5 94 -31 162 -94 253 -75
106 -121 117 -168 42 -14 -22 -29 -40 -33 -40 -4 0 -24 18 -45 39 -42 42 -166
111 -201 111 -13 0 -31 -9 -40 -19z m-716 -155 c94 -20 191 -57 265 -101 32
-19 59 -35 62 -35 2 0 11 -6 18 -12 8 -7 38 -33 68 -58 50 -42 138 -139 145
-161 3 -8 -27 -6 -98 7 -14 3 -77 7 -140 9 -127 5 -177 -4 -345 -66 -127 -47
-212 -46 -345 3 -124 46 -194 60 -305 61 -77 0 -225 -10 -244 -16 -22 -7 -7
24 35 72 213 248 560 364 884 297z m861 -18 c114 -84 158 -262 99 -396 l-20
-44 -39 47 c-44 53 -88 135 -96 180 -7 43 6 235 17 235 5 0 23 -10 39 -22z
m288 -114 c12 -24 24 -67 27 -94 5 -48 -9 -145 -26 -179 -4 -9 -15 -32 -25
-51 -21 -44 -82 -117 -90 -108 -3 3 6 29 20 56 55 105 71 246 40 350 -13 41
-13 55 -3 71 16 25 29 15 57 -45z m-732 -349 c89 -12 198 -36 239 -54 37 -17
42 -24 57 -77 9 -33 19 -79 22 -104 6 -42 3 -48 -24 -72 -39 -35 -90 -67 -189
-118 l-80 -42 -21 21 -20 20 57 26 c70 32 118 68 125 94 7 26 -40 106 -97 163
-25 26 -75 61 -110 78 -62 31 -71 32 -150 28 -72 -4 -95 -10 -158 -41 -40 -20
-95 -56 -123 -79 l-49 -43 -91 -1 -90 -1 -48 42 c-209 183 -453 155 -598 -68
-30 -46 -36 -63 -30 -85 8 -31 64 -73 131 -98 25 -9 47 -18 49 -20 2 -2 -10
-14 -25 -27 l-29 -25 -60 30 c-78 40 -152 88 -193 127 -31 29 -32 33 -27 83 9
83 34 158 60 182 43 40 200 65 385 62 121 -2 130 -4 265 -51 191 -65 240 -65
426 -2 74 26 152 50 174 55 43 9 143 8 222 -3z m499 -151 c15 -37 -6 -97 -33
-92 -17 3 -25 24 -35 88 -6 35 -5 36 25 35 25 -1 33 -7 43 -31z m-1415 -50
c27 -15 49 -30 49 -34 0 -3 -17 -12 -37 -19 -21 -8 -44 -16 -50 -18 -7 -3 -13
2 -13 10 0 22 -48 57 -77 57 -36 0 -83 -51 -77 -84 5 -31 -11 -33 -71 -7 l-39
18 47 45 c82 80 161 90 268 32z m814 27 c22 -10 58 -37 79 -60 l40 -41 -35
-14 c-72 -29 -74 -29 -76 6 -1 38 -42 78 -79 78 -15 0 -38 -13 -56 -30 -34
-34 -39 -35 -92 -11 l-38 17 52 28 c92 50 141 57 205 27z m-343 -168 c87 -18
172 -52 245 -99 72 -46 115 -86 180 -166 59 -74 86 -85 123 -48 22 22 25 42
10 70 -9 17 -3 23 57 54 38 18 99 54 136 79 l67 45 59 -48 c332 -279 242 -639
-219 -866 -47 -23 -108 -50 -137 -59 -39 -13 -62 -28 -88 -60 -235 -288 -611
-370 -943 -208 -89 43 -170 110 -263 218 -15 17 -49 38 -80 49 -46 16 -190 86
-251 122 -48 28 -138 106 -180 155 -134 157 -152 325 -53 495 31 52 112 144
157 175 l27 20 60 -48 c33 -27 94 -66 135 -88 62 -33 76 -44 76 -64 0 -29 26
-50 60 -51 19 0 43 19 93 75 192 212 462 304 729 248z"/>
    <path d="M2035 1226 c-16 -8 -60 -34 -97 -59 -114 -77 -230 -109 -393 -109
-144 1 -289 29 -453 87 -53 19 -103 35 -109 35 -22 0 -53 -39 -53 -65 0 -34
25 -53 111 -87 73 -30 241 -75 307 -84 20 -3 51 -7 67 -10 52 -8 228 -5 285 6
132 25 219 61 335 139 l60 41 12 -52 c29 -128 140 -90 123 42 -4 35 -42 97
-69 113 -34 20 -84 21 -126 3z"/>
  </g>
</svg>
